# xmcd CD database file
#
# Track frame offsets:
#	150
#	24108
#	49608
#	71209
#	93409
#	112175
#	132523
#	154109
#	169279
#
# Disc length: 2524 seconds
#
# Revision: 3
# Processed by: cddbd v1.5.2PL0 Copyright (c) Steve Scherf et al.
# Submitted via: CDex 1.51
#
DISCID=7909da09
DTITLE=David Sanborn - Here and Gone
DYEAR=2008
DGENRE=Jazz
TTITLE0=St. Louis Blues
TTITLE1=Brother Ray  (featuring Derek Trucks)
TTITLE2=I'm Gonna Move To The Outskirts Of Town  (featuring Eric Clapton)
TTITLE3=Basin Street Blues
TTITLE4=Stoney Lonesome
TTITLE5=I Believe It To My Soul  (featuring Joss Stone)
TTITLE6=What Will I Tell My Heart
TTITLE7=Please Send Me Someone To Love
TTITLE8=I've Got News For You  (featuring Sam Moore)
EXTD=YEAR: 2008
EXTT0=
EXTT1=
EXTT2=
EXTT3=
EXTT4=
EXTT5=
EXTT6=
EXTT7=
EXTT8=
PLAYORDER=
